<?xml version="1.0" encoding="utf-8"?>
<!-- Generator: Adobe Illustrator 19.2.0, SVG Export Plug-In . SVG Version: 6.00 Build 0)  -->
<svg version="1.1" id="Capa_1" xmlns="http://www.w3.org/2000/svg" xmlns:xlink="http://www.w3.org/1999/xlink" x="0px" y="0px"
	 viewBox="0 0 55 57" style="enable-background:new 0 0 55 57;" xml:space="preserve">
<style type="text/css">
	.st0{fill:#111111;}
</style>
<path class="st0" d="M54.2,51.9L40.6,37.8C44.1,33.6,46,28.4,46,23C46,10.3,35.7,0,23,0S0,10.3,0,23s10.3,23,23,23
	c4.8,0,9.3-1.4,13.2-4.2L49.8,56c0.6,0.6,1.3,0.9,2.2,0.9c0.8,0,1.5-0.3,2.1-0.8C55.3,55,55.3,53.1,54.2,51.9z M23,6
	c9.4,0,17,7.6,17,17s-7.6,17-17,17S6,32.4,6,23S13.6,6,23,6z"/>
</svg>
