<?xml version="1.0" encoding="utf-8"?>
<!-- Generator: Adobe Illustrator 19.2.0, SVG Export Plug-In . SVG Version: 6.00 Build 0)  -->
<svg version="1.1" id="Capa_1" xmlns="http://www.w3.org/2000/svg" xmlns:xlink="http://www.w3.org/1999/xlink" x="0px" y="0px"
	 viewBox="0 0 950 624.7" style="enable-background:new 0 0 950 624.7;" xml:space="preserve">
<style type="text/css">
	.st0{fill:#0074E8;}
</style>
<g>
	<g>
		<path class="st0" d="M949.9,578.6c-0.1-2.1-0.1-4.1-0.2-6.2c-0.1-2.1-0.2-4.2-0.2-6.3l-0.1-1.6l0-0.8l0-0.2l0-1.8l0-0.1l0-0.3
			l-0.2-2.6c-0.3-3.5-0.5-7-0.8-10.5l-0.2-2.6l-0.3-3.4c-0.2-2.3-0.4-4.6-0.6-6.8c-0.2-2.3-0.4-4.5-0.7-6.8
			c-0.1-1.1-0.2-2.3-0.3-3.4c-0.1-1-0.3-2.1-0.4-3.1c-1.1-8.2-2.2-16.3-3.6-24.1c-0.7-3.9-1.3-7.7-2-11.5c-0.8-3.7-1.5-7.4-2.3-10.9
			c-1.4-7.1-3.2-13.7-4.6-19.9c-0.4-1.5-0.8-3-1.1-4.5c-0.4-1.5-0.8-2.9-1.2-4.3c-0.8-2.8-1.5-5.4-2.2-7.9c-0.7-2.5-1.3-4.8-2-6.9
			c-0.7-2.1-1.3-4.1-1.9-5.8c-0.8-2.6-1.5-4.7-2.1-6.5c-0.8-2.5-3.5-4-6-3.2L756,462.6c-2.4,0.7-4,3.1-3.5,5.6
			c0.2,0.9,0.4,2,0.6,3.2c0.2,1.2,0.5,2.5,0.8,4c0.3,1.5,0.5,3.1,0.7,4.7c0.3,1.7,0.5,3.5,0.8,5.4c0.1,0.9,0.3,1.9,0.4,2.9
			c0.1,1,0.2,2,0.3,3.1c0.4,4.2,1.1,8.7,1.4,13.5c0.2,2.4,0.4,4.9,0.6,7.4c0.2,2.5,0.2,5.1,0.4,7.7c0.3,5.2,0.3,10.6,0.4,16.1l0,2
			l-0.1,1.8c0,1.2-0.1,2.4-0.1,3.6c0,1.2-0.1,2.4-0.1,3.6l0,1.8l-0.1,2.6c-0.1,3.5-0.3,7-0.4,10.5l-0.1,2.6l0,0.3l0,0.1
			c0,0.4,0-3.1,0-1.6l0,0.1l0,0.5l-0.1,1c-0.1,1.4-0.2,2.7-0.4,4.1c-0.1,1.4-0.2,2.7-0.4,4.1c-0.2,1.3-0.3,2.7-0.5,4
			c-0.3,2.7-0.6,5.3-1,7.8c-0.4,2.6-0.7,5.1-1.1,7.5c-0.4,2.4-0.8,4.8-1.2,7.2c-0.4,2.3-0.9,4.6-1.3,6.7c-0.5,2.2-0.8,4.3-1.3,6.3
			c-0.5,2-0.9,3.9-1.3,5.7c-0.2,0.9-0.4,1.8-0.6,2.6c-0.2,0.7-0.4,1.4-0.6,2.1c-0.1,0.4-0.2,0.8-0.3,1.2h196.4
			c2.6,0,4.8-2.1,4.9-4.7c0,0,0,0,0,0c0.2-3.7,0.3-7.4,0.5-11.3c0.1-3.8,0.1-7.8,0.2-11.7c0.1-4,0-8,0-12.1
			C949.9,582.8,949.9,580.7,949.9,578.6z"/>
		<path class="st0" d="M898.8,372.5c2.6-1.1,3.8-4.1,2.6-6.7c-0.5-1.1-1.2-2.5-1.9-4c-0.7-1.4-1.4-3-2.2-4.7c-1-2.1-2.2-4.4-3.4-6.9
			c-1.2-2.5-2.5-5.1-3.9-7.8c-0.7-1.4-1.4-2.6-2.1-4c-0.7-1.3-1.4-2.7-2.2-4c-1.5-2.7-3-5.6-4.7-8.6c-1.7-2.9-3.5-5.9-5.3-9
			c-0.9-1.5-1.8-3.1-2.7-4.7c-1-1.6-2-3.1-2.9-4.7c-2-3.2-4-6.4-6.1-9.7c-4.4-6.5-8.7-13.2-13.6-19.8c-1.2-1.7-2.4-3.3-3.6-5
			l-1.8-2.5l-1.9-2.5c-2.5-3.3-5-6.5-7.6-9.8c-2.6-3.2-5.2-6.4-7.8-9.6c-1.3-1.6-2.6-3.2-3.9-4.7c-1.4-1.5-2.7-3.1-4-4.6
			c-1.3-1.5-2.7-3-4-4.6c-1.3-1.5-2.7-3-4-4.5c-2.7-2.9-5.4-5.8-8.1-8.6c-2.7-2.8-5.4-5.5-8-8.1c-2.6-2.6-5.2-5.2-7.8-7.6
			c-2.6-2.4-5.1-4.8-7.5-7c-2.4-2.3-4.9-4.3-7.2-6.4c-2.3-2-4.5-4-6.7-5.8c-2.2-1.8-4.2-3.5-6.2-5.1c-1.9-1.6-3.7-3.1-5.4-4.4
			c-1.7-1.4-3.3-2.6-4.7-3.7c-2.1-1.6-3.8-2.9-5.2-4c-2.1-1.6-5.1-1.3-6.8,0.8L652,274.7c-1.6,2-1.5,4.8,0.3,6.6
			c0.7,0.7,1.6,1.5,2.5,2.5c0.9,0.9,1.9,1.9,3,3c1.1,1.1,2.2,2.3,3.4,3.6c1.2,1.3,2.5,2.6,3.9,4.1c1.3,1.5,2.7,3,4.1,4.7
			c1.4,1.6,3,3.3,4.5,5.1c1.5,1.8,3,3.7,4.6,5.6c1.6,1.9,3.2,3.9,4.8,6c1.6,2.1,3.3,4.1,4.9,6.3c1.6,2.2,3.2,4.4,4.9,6.7
			c0.8,1.1,1.6,2.3,2.4,3.4c0.8,1.2,1.6,2.3,2.4,3.5c0.8,1.2,1.6,2.3,2.4,3.5c0.8,1.2,1.5,2.4,2.3,3.6c1.5,2.4,3.1,4.8,4.6,7.3
			c1.5,2.5,2.9,4.9,4.4,7.4l1.1,1.8l1,1.9c0.7,1.2,1.4,2.5,2,3.7c2.8,4.9,5.2,9.9,7.6,14.7c1.1,2.4,2.2,4.8,3.3,7.2
			c0.5,1.2,1.1,2.3,1.6,3.5c0.5,1.2,1,2.3,1.5,3.4c1,2.2,1.9,4.4,2.8,6.5c0.8,2.1,1.6,4.2,2.4,6.2c0.4,1,0.8,2,1.1,2.9
			c0.4,0.9,0.8,1.9,1,2.7c0.6,1.6,1.1,3.2,1.6,4.6c0.5,1.4,1,2.8,1.4,4c0.6,1.7,1.1,3.3,1.6,4.7c0.5,1.6,1,3,1.4,4.2
			c0.9,2.7,3.9,4.1,6.5,3L898.8,372.5z"/>
		<path class="st0" d="M459.8,186.1c1.3,0.2,2.8,0.4,4.3,0.6c1.6,0.3,3.3,0.6,5.1,0.9c1.8,0.3,3.7,0.6,5.7,1
			c1.8,0.3,3.6,0.7,5.5,1.1l54.4-111.3c-2.7-0.4-5.4-0.8-8-1.2c-1.8-0.3-3.6-0.6-5.3-0.8c-1.8-0.2-3.5-0.4-5.2-0.6
			c-3.4-0.4-6.8-0.8-10-1.2c-3.2-0.3-6.4-0.5-9.4-0.8c-3-0.2-5.9-0.5-8.6-0.7c-2.7-0.1-5.3-0.3-7.8-0.4c-2.4-0.1-4.7-0.2-6.8-0.3
			c-2.1,0-4-0.1-5.8-0.1c-2.5,0-4.5-0.1-6.2-0.1c-2.7,0-4.9,2-5,4.7l-5,103.6c-0.1,2.6,1.7,4.8,4.2,5.1
			C457.1,185.7,458.4,185.9,459.8,186.1z"/>
		<path class="st0" d="M606,243.1c1.5,1.1,2.8,2.1,4.2,3c1.3,0.9,2.5,1.8,3.7,2.6c0.5,0.3,1.3,0.9,2,1.4c0.7,0.5,1.3,1,1.9,1.4
			c1.3,1,2.5,1.9,3.5,2.6c2.3,1.7,5.5,1.1,7.1-1.2l71-108.2c1.6-2.4,0.8-5.6-1.7-7c-1.1-0.6-2.4-1.4-3.8-2.2
			c-0.7-0.4-1.4-0.8-2.1-1.2c-0.8-0.5-1.6-0.9-2.5-1.4c-2-1.1-4.2-2.3-6.5-3.6c-2.3-1.3-4.8-2.6-7.4-4.1c-2.5-1.3-5.1-2.6-7.9-3.9
			c-2.8-1.3-5.6-2.8-8.6-4.2c-3-1.4-6.1-2.8-9.3-4.2c-3.2-1.5-6.5-2.8-9.9-4.3c-3.4-1.4-6.8-2.9-10.4-4.3c-0.9-0.3-1.8-0.7-2.7-1
			l-30.6,133c1.7,1.1,3.3,2.2,4.9,3.2C602.6,240.9,604.4,242,606,243.1z"/>
		<path class="st0" d="M364.4,185.5c1.4-0.2,2.7-0.4,4.1-0.5c1.3-0.1,2.7-0.3,4-0.4c2.6-0.3,5.2-0.5,7.6-0.8
			c2.5-0.2,4.9-0.3,7.1-0.5c1.1-0.1,2.3-0.2,3.4-0.2c1.1-0.1,2.2-0.2,3.1-0.2c1.9-0.1,3.8-0.1,5.5-0.1c1.7-0.1,3.3-0.1,4.8-0.2
			c1.8,0,3.5,0,5,0c1.7,0,3.1,0,4.4,0c2.8,0,5.1-2.4,4.9-5.3l-6.4-97.6c-0.2-2.8-2.7-4.9-5.5-4.6c-1.3,0.2-2.7,0.3-4.4,0.6
			c-1.5,0.2-3.2,0.4-5.1,0.6c-2.2,0.3-4.6,0.7-7.1,1.1c-2.5,0.4-5.2,0.8-8,1.2c-1.4,0.2-2.8,0.5-4.2,0.7c-1.4,0.3-2.8,0.5-4.3,0.8
			c-2.9,0.6-5.9,1.1-9.1,1.8c-3.1,0.7-6.3,1.4-9.6,2.2c-1.7,0.4-3.3,0.8-5,1.2c-1.7,0.4-3.4,0.9-5.1,1.3c-3.4,0.9-6.9,1.9-10.5,2.8
			c-3.5,1.1-7.1,2.1-10.8,3.2c-1.8,0.6-3.6,1.1-5.5,1.7c-1.8,0.6-3.6,1.2-5.5,1.9c-1.8,0.6-3.7,1.3-5.5,1.9c-1.8,0.6-3.7,1.3-5.5,2
			c-3.6,1.4-7.3,2.8-11,4.2c-3.6,1.4-7.2,3-10.8,4.5c-1.8,0.8-3.6,1.5-5.4,2.3c-1.8,0.8-3.5,1.6-5.3,2.4c-1.7,0.8-3.5,1.6-5.2,2.4
			c-1.7,0.8-3.4,1.6-5.1,2.5c-3.4,1.7-6.7,3.4-9.9,5c-3.3,1.6-6.4,3.4-9.4,5.1c-3.1,1.7-6.1,3.3-8.9,5c-2.9,1.7-5.6,3.4-8.3,4.9
			c-2.7,1.6-5.2,3.3-7.7,4.8c-2.4,1.6-4.8,3.1-7,4.5c-2.2,1.5-4.2,2.9-6.2,4.2c-1.9,1.3-3.7,2.6-5.4,3.7c-1.7,1.2-3.2,2.3-4.5,3.3
			c-1.8,1.4-3.4,2.5-4.7,3.5c-2.1,1.6-2.6,4.5-1.1,6.7l40.5,59.6c1.4,2.1,4.3,2.8,6.5,1.5c1-0.6,2.2-1.3,3.6-2
			c1.2-0.7,2.5-1.5,4-2.2c1.5-0.8,3.1-1.6,4.8-2.5c1.7-0.9,3.5-1.8,5.4-2.8c1.9-0.9,4-1.9,6.1-2.9c2.1-1,4.3-2.1,6.6-3.1
			c2.3-1,4.7-2.1,7.2-3.2c2.4-1.1,5-2.1,7.6-3.2c2.6-1,5.3-2.2,8-3.1c2.7-1,5.5-2,8.4-3c1.4-0.5,2.8-1,4.3-1.4
			c1.4-0.5,2.9-0.9,4.4-1.4c1.5-0.5,2.9-0.9,4.4-1.4c1.5-0.4,3-0.8,4.4-1.3c3-0.8,5.9-1.7,8.9-2.5c3-0.7,6-1.5,9-2.2
			c1.5-0.4,3-0.7,4.5-1c1.5-0.3,3-0.6,4.5-0.9c1.5-0.3,3-0.6,4.4-0.9c1.5-0.3,3-0.5,4.4-0.8c2.9-0.5,5.8-1,8.6-1.5
			C358.9,186.3,361.7,185.9,364.4,185.5z"/>
		<path class="st0" d="M88.2,262.6c-1.1,1.5-2.1,3-3.2,4.5c-1.1,1.5-2.1,3-3.2,4.6c-1.1,1.5-2.1,3.1-3.1,4.7
			c-2.1,3.1-4.2,6.2-6.2,9.4c-2,3.2-3.9,6.4-5.9,9.6l-1.5,2.4l-1.4,2.4c-0.9,1.6-1.8,3.2-2.8,4.8c-3.7,6.4-7,12.8-10.3,19
			c-1.5,3.1-3,6.2-4.5,9.3c-0.7,1.5-1.5,3-2.2,4.5c-0.7,1.5-1.3,3-2,4.4c-1.3,2.9-2.6,5.8-3.8,8.5c-1.2,2.8-2.3,5.5-3.3,8
			c-1,2.6-2.1,5-3,7.4c-0.9,2.4-1.7,4.6-2.5,6.8c-0.8,2.1-1.5,4.1-2.2,5.9c-0.6,1.8-1.2,3.5-1.7,5.1c-0.7,2-1.3,3.8-1.7,5.2
			c-0.8,2.5,0.4,5.2,2.9,6.2l37.7,14.5c2.4,0.9,5.1-0.2,6.2-2.5c0.6-1.1,1.2-2.5,2-4.1c0.6-1.3,1.3-2.7,2.1-4.3
			c0.8-1.5,1.7-3.2,2.6-5c0.9-1.8,1.9-3.7,2.9-5.7c1-2,2.2-4,3.4-6.2c1.2-2.1,2.5-4.4,3.8-6.7c1.4-2.3,2.8-4.6,4.3-7
			c0.7-1.2,1.5-2.4,2.2-3.7c0.8-1.2,1.6-2.4,2.4-3.7c1.6-2.5,3.2-5,4.9-7.6c3.5-5,7-10.3,10.9-15.4c1-1.3,1.9-2.6,2.9-3.9l1.4-1.9
			l1.5-1.9c2-2.5,4-5.1,6.1-7.6c2.1-2.5,4.2-5,6.3-7.4c1.1-1.2,2.1-2.5,3.1-3.7c1.1-1.2,2.2-2.4,3.2-3.6c1.1-1.2,2.1-2.4,3.2-3.5
			c1.1-1.2,2.1-2.3,3.2-3.4c2.2-2.2,4.3-4.5,6.4-6.6c2.1-2.2,4.3-4.2,6.4-6.2c2.1-2,4.1-4,6.2-5.9c2-1.9,4-3.7,6-5.4
			c1.9-1.8,3.9-3.3,5.7-4.9c1.8-1.6,3.6-3,5.2-4.5c1.6-1.3,3.2-2.5,4.6-3.7c1.4-1.2,2.8-2.2,4.1-3.2c0.6-0.5,1.4-1,2-1.5
			c0.7-0.5,1.3-1,1.9-1.5c1.3-1,2.5-1.9,3.5-2.7c2.3-1.7,2.6-5,0.8-7.1l-42.9-50.3c-1.8-2.2-5.1-2.3-7.2-0.4c-0.9,0.9-2,1.9-3.2,3.1
			c-0.6,0.5-1.1,1.1-1.7,1.7c-0.6,0.6-1.2,1.2-2,1.9c-1.5,1.5-3.1,3.1-4.8,4.8c-1.7,1.7-3.5,3.5-5.4,5.5c-1.8,1.9-3.6,3.9-5.6,6
			c-1.9,2.1-4,4.2-6,6.6c-2,2.3-4.1,4.7-6.2,7.2c-2.2,2.4-4.2,5.1-6.4,7.7c-2.1,2.7-4.4,5.3-6.5,8.2c-2.1,2.8-4.3,5.7-6.5,8.6
			C90.3,259.6,89.2,261,88.2,262.6z"/>
		<path class="st0" d="M10.2,438.9c-0.3,1.2-0.5,2.7-0.9,4.3c-0.3,1.5-0.6,3.2-1,5c-0.4,1.9-0.7,4-1.1,6.3c-0.4,2.3-0.8,4.7-1.2,7.2
			c-0.2,1.3-0.4,2.6-0.6,3.9c-0.2,1.3-0.4,2.6-0.5,4C4,475,3.1,480.9,2.6,487.1c-0.3,3.1-0.6,6.3-1,9.6c-0.3,3.3-0.4,6.6-0.7,10.1
			c-0.5,6.8-0.6,13.9-0.9,21L0,530.5l0,2.7c0,1.8,0,3.6,0,5.4c0,1.8,0,3.6,0,5.4l0,2.7l0.1,2.7c0.1,3.6,0.3,7.2,0.4,10.8l0.1,2.7
			l0,0.9l0,0.7l0.1,1.3c0.1,1.7,0.3,3.5,0.4,5.2s0.3,3.4,0.4,5.1c0.2,1.8,0.3,3.5,0.5,5.3c0.2,1.8,0.3,3.5,0.5,5.2
			c0.1,0.9,0.2,1.7,0.3,2.6c0.1,0.8,0.2,1.7,0.3,2.5c0.4,3.3,0.8,6.6,1.3,9.9c0.5,3.2,1,6.4,1.4,9.4c0.4,3.1,1,6,1.5,8.9
			c0,0.2,0.1,0.5,0.1,0.7c0.4,2.3,2.5,4,4.8,4h13.3c2.8,0,5.1-2.4,4.9-5.2c0-0.8-0.1-1.5-0.1-2.3c-0.2-2.8-0.4-5.6-0.4-8.5
			c-0.1-2.9-0.2-5.9-0.3-9c0-3.1,0-6.2-0.1-9.4c0-0.8,0-1.6,0-2.4c0-0.8,0-1.6,0.1-2.4c0-1.6,0.1-3.2,0.1-4.8c0-1.6,0.1-3.2,0.1-4.9
			c0.1-1.7,0.2-3.4,0.2-5.1c0.1-1.7,0.2-3.5,0.2-5.2l0.1-1.3l0-0.7l0-0.1c0-0.2,0,0.2,0,0.1l0-0.2l0-0.3l0.2-2.5
			c0.3-3.4,0.5-6.7,0.8-10.1l0.2-2.5l0.3-2.5c0.2-1.7,0.4-3.4,0.6-5c0.2-1.7,0.4-3.3,0.6-5l0.3-2.5l0.4-2.5c1-6.6,1.9-13,3.1-19.2
			c0.6-3.1,1.1-6.2,1.7-9.1c0.7-3,1.3-5.8,1.9-8.7c1.2-5.6,2.7-10.9,3.9-15.7c0.3-1.2,0.6-2.4,0.9-3.6c0.3-1.1,0.7-2.2,1-3.3
			c0.6-2.1,1.2-4.2,1.8-6.1c0.6-1.9,1.1-3.6,1.6-5.4c0.6-1.8,1.1-3.4,1.6-4.8c0.5-1.6,1-3,1.4-4.2c0.9-2.7-0.7-5.6-3.4-6.3
			l-33.3-8.9C13.5,434.4,10.7,436.1,10.2,438.9z"/>
		<path class="st0" d="M387.3,611.6c10.8,5.3,22.3,7.8,33.6,7.8c28.4,0,55.6-15.8,69-43c2.6-5.2,4.5-11,5.8-16.5l77.6-336.7
			L602.9,95l18.3-79.4C623.3,6.3,615.9,0,608.6,0c-4.3,0-8.6,2.2-11.1,7.1l-37.2,76.2l-54.9,112.4L352.1,509
			C333.5,547.1,349.3,593,387.3,611.6z M423.8,503.2c20.8,0,37.6,16.8,37.6,37.6c0,20.8-16.8,37.6-37.6,37.6s-37.6-16.8-37.6-37.6
			C386.2,520,403,503.2,423.8,503.2z"/>
	</g>
</g>
</svg>
